<?xml version="1.0" encoding="utf-8"?>
<!-- Generator: Adobe Illustrator 16.0.0, SVG Export Plug-In . SVG Version: 6.00 Build 0)  -->
<!DOCTYPE svg PUBLIC "-//W3C//DTD SVG 1.1//EN" "http://www.w3.org/Graphics/SVG/1.1/DTD/svg11.dtd">
<svg version="1.1" id="Layer_1" xmlns="http://www.w3.org/2000/svg" xmlns:xlink="http://www.w3.org/1999/xlink" x="0px" y="0px"
	 width="400px" height="130px" viewBox="0 0 400 130" enable-background="new 0 0 400 130" xml:space="preserve">
<g>
	<path fill="#FF6600" d="M29.945,35.496c0-6.472,3.99-9.815,9.922-9.815s7.981,3.451,7.981,7.226c0,3.559-1.941,7.55-4.854,9.276
		c1.402,1.618,3.021,2.265,4.961,2.265c5.393,0,8.844-4.638,8.844-10.893c0-11.864-12.296-12.942-17.365-12.942
		c-13.913,0-24.915,8.089-24.915,19.306c0,15.855,22.11,22.435,22.11,40.877c0,9.06-5.285,14.346-12.511,14.346
		c-6.903,0-10.354-4.961-10.354-10.355c0-7.441,6.795-10.138,12.619-10.138c-0.324-5.609-5.716-7.118-9.492-7.118
		c-7.55,0-15.854,6.039-15.854,17.688c0,13.158,10.57,18.552,22.865,18.552c15.64,0,30.308-8.845,30.308-26.965
		C54.212,53.507,29.945,51.35,29.945,35.496z"/>
	<path fill="#FF6600" d="M190.096,47.037c-5.393,0-9.491,2.148-12.619,4.845L179.203,44h-15.532l-8.194,38.406
		c-5.393,6.146-10.569,10.788-19.09,10.788c-5.177,0-7.765-1.777-7.765-9.111c0-1.294,0.108-2.831,0.216-4.34
		c12.942-0.756,24.807-10.367,24.807-22.771c0-5.393-2.265-10.361-11.864-10.361c-22.11,0-29.121,25.991-29.121,38.394
		c0,0.112,0.01,0.213,0.011,0.324c-1.864,3.869-3.866,6.36-7.665,6.36c-3.235,0-4.314-1.835-4.314-4.531
		c0-6.039,5.177-19.09,5.177-27.827c0-8.628-5.069-12.188-11.972-12.188c-3.343,0-8.089,0.863-12.619,6.04l5.824-27.18L71.14,28.409
		L55.5,102h15.532l7.441-35.301c0.647-2.913,3.991-9.616,8.198-9.616c2.696,0,3.99,1.879,3.99,5.438
		c0,6.904-4.853,20.138-4.853,27.474c0,6.146,3.343,12.172,12.727,12.172c4.312,0,10.096-1.301,15.27-9.525
		c2.316,6.667,8.005,9.514,15.679,9.514c10.753,0,18.598-5.64,24.441-12.642l-8.267,38.955l16.287-3.883l5.608-26.318
		c1.187,2.05,3.775,3.884,9.168,3.884c20.925,0,26.534-23.513,26.534-38.074C203.255,51.243,197.43,47.037,190.096,47.037z
		 M142.644,52.321c2.049,0,2.696,1.726,2.696,4.422c0,8.952-7.334,17.257-15.639,17.797
		C131.857,63.862,137.143,52.321,142.644,52.321z M173.378,92.767c-2.481,0-3.668-1.294-4.099-2.48l6.364-30.199
		c2.049-3.452,5.069-5.285,7.442-5.285c1.941,0,5.393,0.647,5.393,8.952C188.478,73.893,184.703,92.767,173.378,92.767z"/>
	<path fill="#FF6600" d="M343.774,55.665c0-4.098-2.587-8.089-7.441-8.089c-5.177,0-9.275,3.664-13.05,6.899L324.686,48h-15.532
		l-7.342,34.424c-5.39,6.142-10.564,10.773-19.078,10.773c-5.177,0-7.766-1.779-7.766-9.113c0-1.294,0.108-2.832,0.215-4.341
		c12.943-0.756,24.808-10.366,24.808-22.771c0-5.393-2.266-10.361-11.864-10.361c-22.109,0-29.12,25.99-29.12,38.394
		c0,0.112,0.01,0.212,0.012,0.323c-1.865,3.869-3.866,6.361-7.665,6.361c-3.235,0-4.313-1.835-4.313-4.531
		c0-6.039,5.177-19.09,5.177-27.827c0-8.628-5.07-12.188-11.972-12.188c-3.345,0-8.09,0.863-12.62,6.04l5.825-27.18l-15.964,2.405
		L201.846,102h15.532l7.442-35.301c0.646-2.913,3.989-9.616,8.197-9.616c2.696,0,3.99,1.879,3.99,5.438
		c0,6.904-4.854,20.138-4.854,27.474c0,6.146,3.344,12.172,12.727,12.172c4.313,0,10.096-1.301,15.271-9.526
		c2.315,6.668,8.005,9.515,15.679,9.515c10.748,0,18.589-5.386,24.432-12.383L297.722,102h15.53l8.629-41.234
		c2.696-2.48,4.638-4.222,7.873-4.222c3.236,0,0.215,7.056,6.257,7.056C341.294,63.6,343.774,59.439,343.774,55.665z
		 M288.988,52.321c2.05,0,2.696,1.726,2.696,4.422c0,8.952-7.333,17.257-15.638,17.797
		C278.204,63.862,283.488,52.321,288.988,52.321z"/>
	<path fill="#FF6600" d="M385.836,87.374c0-0.971,0.216-2.05,0.431-3.127l12.403-58.243l-16.174,2.157L377,52.968v-0.432
		c0-3.127-2.377-5.5-8.523-5.5c-18.768,0-27.615,23.189-27.615,37.749c0,12.836,7.063,17.366,14.398,17.366
		c7.117,0,12.106-4.314,15.342-8.952c1.294,6.256,5.729,8.952,11.229,8.952c5.825,0,11.332-3.452,11.871-11.109
		c-0.647,0.323-1.506,0.646-3.447,0.646C386.911,91.688,385.836,89.854,385.836,87.374z M370.735,83.923
		c-1.186,5.285-5.608,7.766-8.412,7.766c-1.941,0-5.393-0.107-5.393-8.413c0-10.139,5.932-29.552,15.1-29.552
		c3.235,0,4.206,2.481,4.422,3.775L370.735,83.923z"/>
	<path fill="#FF6600" d="M107.58,40.632c6.658,0,9.377-3.706,10.677-9.917L124.347,2h-1.624c-6.78,0-14.25,5.045-14.25,10.445
		c0,2.923,1.543,3.882,4.344,3.882c-0.041-0.365-0.568-0.717-0.568-2.789c0-4.344,2.192-7.443,5.725-8.904l-6.375,28.98
		c-0.934,4.182-2.029,4.99-3.856,4.99c-1.178,0-2.761-0.732-2.761-2.843c0-1.502,0.974-3.005,2.842-3.005
		c0.812,0,1.421,0.203,2.436,1.055c0.163-0.609,0.244-1.178,0.244-1.625c0-2.598-2.355-2.72-3.979-2.72
		c-3.208,0-4.953,2.679-4.953,5.44C101.571,38.277,103.723,40.632,107.58,40.632z"/>
	<path fill="#FF6600" d="M127.515,32.471c2.882,0,4.79-1.867,6.049-3.735c0.243,2.436,1.705,3.735,3.979,3.735
		c1.435,0,3.493-0.508,5.395-2.626L142.457,32h5.846l2.761-12.919c0.609-2.029,1.706-3.718,3.288-3.718
		c0.894,0,1.218,0.922,1.218,1.815c0,0.366-0.041,0.59-0.122,0.916L152.484,32h5.847l2.761-12.919
		c0.609-2.029,1.705-3.677,3.166-3.677c0.975,0,1.461,0.759,1.461,2.099c0,2.599-1.827,7.606-1.827,10.367
		c0,2.314,1.259,4.594,4.791,4.594c1.601,0,3.74-0.472,5.667-3.454c0.467,2.394,2.138,3.459,4.202,3.459
		c1.673,0,4.41-0.529,6.642-3.719c0.84,2.606,2.995,3.721,5.904,3.721c3.248,0,6.171-1.38,7.023-6.007
		c-1.299,1.136-3.248,2.151-4.791,2.151c-1.421,0-2.517-0.812-2.517-3.37c0-0.366,0.041-0.812,0.081-1.218
		c4.872-0.285,9.337-3.857,9.337-8.566c0-2.03-0.853-3.897-4.465-3.897c-8.323,0-10.961,9.784-10.961,14.453
		c0,0.091,0.007,0.175,0.009,0.265c-0.741,1.34-1.88,2.252-3.096,2.252c-1.137,0-1.665-0.366-1.665-1.502
		c0-0.366,0.041-0.735,0.163-1.264L183.138,12h-5.846l-2.761,13h-0.002c-0.894,2-1.625,3.553-3.411,3.553
		c-1.218,0-1.624-0.7-1.624-1.715c0-2.273,1.948-7.191,1.948-10.479c0-3.248-1.908-4.59-4.506-4.59
		c-1.502,0-3.694,0.445-5.643,3.449c-0.447-2.517-2.03-3.492-4.182-3.492c-1.421,0-3.248,0.401-4.953,2.35L152.606,12h-5.846
		l-2.764,13.001c-0.609,2.027-1.704,3.794-3.287,3.794c-1.136,0-1.664-0.618-1.664-1.755c0-0.366,0.04-0.74,0.162-1.268L142.13,12
		h-5.846L136,14.081v-0.284c0-1.178-1.056-2.071-3.37-2.071c-7.064,0-10.475,8.729-10.475,14.21
		C122.156,30.767,124.754,32.471,127.515,32.471z M196.089,13.715c0.771,0,1.016,0.649,1.016,1.665c0,3.41-2.761,6.536-5.928,6.698
		C192.03,18.222,194.06,13.715,196.089,13.715z M133.808,14.243c1.299,0,1.665,1.055,1.665,1.542l-1.949,9.175
		c-0.487,2.354-2.192,3.573-3.37,3.573c-0.73,0-2.03-0.041-2.03-3.167C128.124,21.55,130.357,14.243,133.808,14.243z"/>
	<path fill="#FF6600" d="M181.312,9.736c1.786,0,3.248-1.421,3.248-3.207c0-1.787-1.462-3.249-3.248-3.249
		c-1.787,0-3.208,1.462-3.208,3.249C178.104,8.315,179.524,9.736,181.312,9.736z"/>
</g>
</svg>
