<?xml version="1.0" encoding="utf-8"?>
<!-- Generator: Adobe Illustrator 16.0.0, SVG Export Plug-In . SVG Version: 6.00 Build 0)  -->
<!DOCTYPE svg PUBLIC "-//W3C//DTD SVG 1.1//EN" "http://www.w3.org/Graphics/SVG/1.1/DTD/svg11.dtd">
<svg version="1.1" id="Layer_1" xmlns="http://www.w3.org/2000/svg" xmlns:xlink="http://www.w3.org/1999/xlink" x="0px" y="0px"
	 width="500px" height="500px" viewBox="0 0 500 500" enable-background="new 0 0 500 500" xml:space="preserve">
<g opacity="0.07">
	<path fill="#FFFFFF" d="M77.615,382.329c-1.926,1.927-4.174,2.89-7.171,2.677c1.178-4.604-0.856-10.489-4.388-14.021
		c-3.745-3.745-9.204-5.137-15.089,0.75c-5.887,5.886-6.528,13.163-0.107,19.586c15.732,15.731,41.952-6.208,65.069,16.908
		c17.979,17.979,12.201,41.311-3.317,56.828c-12.201,12.202-28.041,17.337-41.096,4.281c-11.56-11.559-9.312-25.792-1.82-33.283
		c3.746-3.746,10.594-7.6,16.481-2.355c-5.779,5.78-9.846,15.196-2.462,22.581c5.352,5.352,13.7,6.85,20.549,0.001
		c7.17-7.17,7.169-17.66-1.821-26.648c-18.3-18.301-46.768-2.892-62.5-18.623c-11.129-11.129-8.24-30.073,5.565-43.878
		c5.029-5.03,18.3-16.16,30.073-4.387C81.79,368.951,82.966,376.979,77.615,382.329z"/>
	<path fill="#FFFFFF" d="M128.445,356.329c-4.174,4.174-0.963,14.021,1.285,17.554l27.397,42.166l-15.411,15.41l-57.257-88.292
		l13.698-17.981l21.191,32.749c-0.642-9.632,3.21-15.196,6.528-18.514c6.85-6.851,15.411-8.348,23.972,0.214
		c8.669,8.67,16.482,26.756,22.475,32.747c2.675,2.677,5.565,3.426,8.775,0.217c4.709-4.711,2.782-10.491-0.429-18.409l4.496-4.495
		c11.559,23.545,5.566,34.033-0.106,39.705c-9.31,9.31-18.622,6.635-24.722,0.535c-7.279-7.278-15.625-25.257-22.475-32.108
		C134.331,354.296,131.12,353.654,128.445,356.329z"/>
	<path fill="#FFFFFF" d="M213.629,342.85c8.454-8.453,8.882-18.3,8.133-29.751l3.639-3.64c3.746,15.945,4.603,34.997-9.631,49.23
		c-10.06,10.06-21.618,11.773-33.711-0.319c-12.308-12.31-31.144-45.058-9.205-66.997c9.524-9.524,16.695-6.85,22.045-1.498
		c12.309,12.308,10.06,33.603-2.032,47.194c1.39,1.606,2.784,3.213,4.067,4.497C204.211,348.843,208.492,347.987,213.629,342.85z
		 M179.382,296.189c-5.458,5.457,0.749,22.152,9.205,34.889c7.704-8.777,6.742-24.293-2.142-33.177
		C183.77,295.226,181.416,294.155,179.382,296.189z"/>
	<path fill="#FFFFFF" d="M206.99,251.243l6.314,9.74c0.428-5.779,2.568-11.772,7.919-17.123c7.277-7.277,17.23-8.884,29.965,3.852
		c14.448,14.448,32.215,43.345,11.451,64.106c-5.351,5.351-9.739,6.1-12.949,5.244l20.549,31.678l-12.308,20.013l-66.354-102.098
		L206.99,251.243z M236.206,262.053c-8.24-8.24-12.307-5.458-14.234-3.531c-2.354,2.354-3.531,7.17-2.139,12.629l23.65,36.279
		c1.607,0.75,4.067,0.855,6.529-1.606C261.248,294.588,246.267,272.112,236.206,262.053z"/>
	<path fill="#FFFFFF" d="M273.657,211.116c-4.174,4.174-0.963,14.02,1.286,17.553l27.398,42.166l-15.414,15.412l-57.256-88.294
		l13.699-17.98l21.19,32.749c-0.642-9.631,3.212-15.196,6.529-18.515c6.849-6.848,15.412-8.348,23.974,0.213
		c8.667,8.67,16.481,26.756,22.474,32.749c2.675,2.676,5.565,3.425,8.775,0.215c4.71-4.71,2.781-10.489-0.429-18.407l4.495-4.495
		c11.559,23.545,5.565,34.033-0.106,39.706c-9.312,9.309-18.621,6.635-24.721,0.534c-7.279-7.278-15.627-25.257-22.476-32.107
		C279.543,209.083,276.333,208.44,273.657,211.116z"/>
	<path fill="#FFFFFF" d="M358.842,197.637c8.454-8.453,8.883-18.299,8.134-29.752l3.638-3.637
		c3.746,15.944,4.604,34.995-9.631,49.23c-10.062,10.059-21.618,11.77-33.711-0.323c-12.309-12.309-31.144-45.057-9.205-66.996
		c9.525-9.524,16.696-6.849,22.045-1.498c12.31,12.309,10.062,33.604-2.032,47.197c1.392,1.603,2.783,3.211,4.066,4.495
		C349.423,203.63,353.705,202.773,358.842,197.637z M324.594,150.976c-5.457,5.458,0.751,22.153,9.204,34.889
		c7.707-8.777,6.742-24.293-2.14-33.176C328.982,150.013,326.628,148.942,324.594,150.976z"/>
	<path fill="#FFFFFF" d="M355.307,110.847l5.245,8.027c0.533-6.956,1.174-14.447,6.313-19.584c4.817-4.817,11.344-3.424,15.41,0.643
		c3.745,3.745,5.351,10.274,0.107,15.517c-5.995,5.995-10.06-4.066-13.271-0.854c-3.209,3.21-3.531,6.742-3.744,11.879l32.106,49.23
		l-15.41,15.411l-42.17-64.855L355.307,110.847z"/>
	<path fill="#FFFFFF" d="M452.797,86.129c0.857,1.284,1.714,2.569,2.676,3.531c2.462,2.461,5.351,3.211,8.67-0.107
		c1.927-1.927,2.462-3.104,2.782-4.066c7.063,8.133,5.031,17.016-0.75,22.795c-5.456,5.458-12.521,7.17-20.012,2.248
		c1.393,7.812,0.749,17.017-6.313,24.08c-7.279,7.278-18.729,9.74-31.466-2.997c-14.448-14.447-28.572-46.341-9.951-64.962
		c6.1-6.1,11.021-6.313,14.125-3.21l0.428,0.428l-19.368-29.86l13.697-17.979L452.797,86.129z M416.519,69.326
		c-1.499-1.07-4.924-2.567-8.134,0.642c-9.097,9.097,4.28,34.246,14.342,44.305c8.238,8.242,11.771,4.924,13.697,2.998
		c2.782-2.782,4.709-9.631,0.642-16.052L416.519,69.326z"/>
</g>
<g opacity="0.07">
	<path fill="#FFFFFF" d="M111.076,264.192l22.559,34.645c4.875,7.452,5.962,13.938-0.644,20.545
		c-3.828,3.828-8.299,3.626-11.642,0.282c-2.74-2.738-3.667-7.131-0.484-10.313c1.612-1.611,4.069-3.827,6.646-1.249
		c0.443,0.442,0.927,1.087,1.371,1.854c-1.854,0.16-2.659,0.563-3.466,1.368c-1.854,1.854-1.328,4.311,0.162,5.802
		c2.094,2.094,4.39,1.25,5.559,0.081c1.813-1.813,2.095-3.708-1.129-8.782l-22.437-35.088c-2.055,4.955-1.169,10.193,3.142,14.503
		c2.054,2.054,2.899,1.852,3.303,2.175c-2.78,2.778-5.317,3.304-8.217,0.404c-5.358-5.359-3.062-17.888,3.666-24.614
		L111.076,264.192z"/>
	<path fill="#FFFFFF" d="M138.793,256.617l10.796,16.598c0.403,0.646,0.766,1.088,1.128,1.45c1.128,1.127,2.256,1.209,3.383,0.08
		c1.571-1.569,0.886-4.43-0.524-7.049l1.693-1.692c4.27,8.863,1.531,13.373-0.646,15.55c-2.256,2.256-4.995,2.417-7.653,0.243
		c0.604,3.101,0.564,6.849-2.296,9.706c-2.74,2.74-7.05,3.667-11.844-1.126c-5.438-5.439-10.755-17.443-3.746-24.454
		c2.296-2.295,4.149-2.376,5.317-1.208l0.282,0.281l-1.693-2.578L138.793,256.617z M138.229,283.85
		c3.102,3.102,4.432,1.853,5.157,1.129c1.169-1.169,1.651-4.069-0.202-6.89l-7.169-11.038c-0.484-0.482-1.894-1.168-3.183,0.122
		C129.406,270.597,134.442,280.063,138.229,283.85z"/>
	<path fill="#FFFFFF" d="M164.253,238.167c-1.45,1.45-0.845,4.229,0.565,6.848l10.192,15.671l-5.801,5.8l-10.958-16.839
		c-0.242-0.403-0.524-0.765-0.887-1.128c-0.886-0.886-2.094-1.45-2.981-0.563c-1.571,1.571-0.926,4.391,0.483,7.01l10.192,15.671
		l-5.801,5.801l-15.873-24.412l5.801-5.802l1.651,2.538c-0.241-3.625,1.209-5.801,2.619-7.211c2.136-2.135,4.672-2.739,7.613-0.685
		c-1.047-4.915,0.685-7.533,2.176-9.023c2.578-2.579,5.8-3.142,9.023,0.08c3.262,3.264,6.205,10.072,8.459,12.327
		c1.007,1.007,2.095,1.29,3.304,0.082c1.772-1.772,1.047-3.949-0.161-6.93l1.692-1.692c4.35,8.862,2.094,12.81-0.042,14.946
		c-3.504,3.504-7.009,2.497-9.305,0.202c-2.74-2.74-5.881-9.507-8.459-12.086C166.429,237.442,165.221,237.2,164.253,238.167z"/>
	<path fill="#FFFFFF" d="M179.483,215.927l10.796,16.598c0.402,0.645,0.765,1.088,1.127,1.451c1.128,1.128,2.015,0.967,3.143-0.162
		c1.571-1.57,1.49-4.552,0.08-7.17l1.692-1.691c4.271,8.861,1.168,13.737-1.007,15.911c-2.417,2.417-5.76,2.861-9.145-0.523
		c-0.765-0.765-1.53-1.772-2.296-2.94l-10.192-15.671L179.483,215.927z M169.089,209.16c1.773-1.772,4.673-1.772,6.446,0
		c1.772,1.772,1.732,4.632-0.041,6.405c-1.772,1.773-4.592,1.772-6.364,0C167.358,213.792,167.317,210.933,169.089,209.16z"/>
	<path fill="#FFFFFF" d="M206.152,222.372c1.53-1.53,2.457-4.472,2.619-6.888c3.746,5.438,2.215,9.708-1.007,12.931
		c-3.747,3.746-8.097,4.39-12.648-0.162c-4.633-4.632-11.724-16.958-3.465-25.217c3.585-3.585,6.283-2.578,8.299-0.563
		c4.672,4.673,3.786,12.648-0.766,17.765c0.362,0.442,0.766,0.926,1.128,1.289C202.849,224.064,204.743,223.782,206.152,222.372z
		 M194.107,204.849c-2.014,2.014,0.443,8.5,3.423,13.172c2.981-3.302,2.62-9.144-0.764-12.527
		C195.759,204.486,194.873,204.083,194.107,204.849z"/>
</g>
</svg>
