<?xml version="1.0" encoding="utf-8"?>
<!-- Generator: Adobe Illustrator 16.0.0, SVG Export Plug-In . SVG Version: 6.00 Build 0)  -->
<!DOCTYPE svg PUBLIC "-//W3C//DTD SVG 1.1//EN" "http://www.w3.org/Graphics/SVG/1.1/DTD/svg11.dtd">
<svg version="1.1" id="Layer_1" xmlns="http://www.w3.org/2000/svg" xmlns:xlink="http://www.w3.org/1999/xlink" x="0px" y="0px"
	 width="400px" height="460px" viewBox="0 0 400 460" enable-background="new 0 0 400 460" xml:space="preserve">
<path id="path3" opacity="0.1" fill="#242424" d="M216.686,57.915c41.518,0,68.26,43.554,68.814,97.563H147.873
	C148.43,101.468,175.17,57.915,216.686,57.915z M216.686,3.99C151.999,3.99,99.58,72.441,99.58,156.87l0.029,2.121
	c-22,8.057-37.67,29.109-37.67,53.813v134.478c0,59.863,69.288,108.41,154.748,108.41c85.461,0,154.75-48.547,154.75-108.41V212.803
	c0-24.703-15.672-45.756-37.67-53.813l0.027-2.121C333.793,72.441,281.375,3.99,216.686,3.99z M172.772,282.648
	c0-24.176,19.657-43.777,43.914-43.777c24.258,0,43.916,19.602,43.916,43.777c0,15.475-8.059,29.084-20.217,36.863v40.291h-47.398
	v-40.291C180.831,311.732,172.772,298.123,172.772,282.648z"/>
</svg>
